<svg id="Capa_1" enable-background="new 0 0 512 512" height="512" viewBox="0 0 512 512" width="512" xmlns="http://www.w3.org/2000/svg"><g><g><path d="m498.98 281.978h-371.562c-1.657 0-3-1.343-3-3v-239.997c0-1.657 1.343-3 3-3h371.562c1.657 0 3 1.343 3 3v239.996c0 1.657-1.343 3.001-3 3.001z" fill="#b8ecbc"/><path d="m52.937 315.783v136.934s-1.196 23.301 24.785 23.301 26.667-20.629 26.667-20.629.984 20.629 25.03 20.629 22.657-20.629 22.657-31.651.015-128.585.015-128.585h-99.154z" fill="#66e0f7"/><path d="m152.092 315.783v-92.514h69.888v-54.264h-137.983s-72.491 8.692-72.491 60.869 0 63.532 0 63.532h42.098v22.377z" fill="#ff9eb1"/><g fill="#ffdfe5"><path d="m221.98 172.847v50.422s51.118 10.029 51.118-25.211-51.118-25.211-51.118-25.211z"/><circle cx="102.51" cy="130.253" r="42.594"/><path d="m11.506 293.406s-10.354 58.687 41.422 58.687l.676-58.687z"/></g></g><g><circle cx="321.636" cy="281.978" r="10"/><path d="m489.147 25.962h-351.777c-12.602 0-22.854 10.252-22.854 22.853v29.444c-3.86-.905-7.877-1.399-12.009-1.399-29.013 0-52.617 23.604-52.617 52.617 0 13.375 5.025 25.594 13.275 34.887-36.19 8.724-63.165 41.353-63.165 80.183v64.629c0 25.765 18.501 47.29 42.917 51.986v90.071c0 19.191 15.613 34.804 34.805 34.804 9.69 0 18.468-3.98 24.785-10.393 6.317 6.412 15.094 10.393 24.785 10.393 19.191 0 34.805-15.613 34.805-34.804v-159.236h114.419c5.534 0 10.02-4.486 10.02-10.02s-4.486-10.02-10.02-10.02h-114.42v-40.298h86.247c19.191 0 34.804-15.614 34.804-34.805 0-4.014-.691-7.868-1.947-11.459l71.522-33.44c5.013-2.343 7.177-8.307 4.833-13.32-2.344-5.014-8.308-7.178-13.32-4.833l-75.137 35.131c-5.799-4.321-12.982-6.883-20.754-6.883h-104.56c7.092-8.967 11.341-20.28 11.341-32.574 0-16.959-8.073-32.06-20.568-41.689v-38.972c0-1.552 1.263-2.814 2.815-2.814h351.777c1.552 0 2.814 1.262 2.814 2.814v220.329c0 1.552-1.262 2.814-2.814 2.814h-122.39c-5.534 0-10.02 4.486-10.02 10.02s4.486 10.02 10.02 10.02h122.39c12.601 0 22.853-10.252 22.853-22.853v-220.33c-.002-12.601-10.254-22.853-22.855-22.853zm-446.23 314.547c-13.255-4.249-22.878-16.685-22.878-31.332v-8.312h22.878zm99.14 110.725c0 8.141-6.624 14.765-14.766 14.765-8.141 0-14.765-6.624-14.765-14.765v-91.62c0-5.534-4.486-10.02-10.02-10.02s-10.02 4.486-10.02 10.02v91.62c0 8.141-6.624 14.765-14.766 14.765-8.141 0-14.765-6.624-14.765-14.765v-123.191h79.101v123.191zm89.943-269.144h16.343c8.141 0 14.765 6.624 14.765 14.765 0 8.142-6.624 14.766-14.765 14.766h-16.343zm-20.04 0v29.531h-59.882c-5.46 0-10.021 4.557-10.021 10.023v86.36h-79.101v-69.836c0-5.534-4.486-10.02-10.02-10.02s-10.02 4.486-10.02 10.02v42.659h-22.877v-36.278c0-34.437 28.017-62.454 62.453-62.454h10.314v69.905c0 5.523 4.477 10 10 10s10-4.477 10-10v-69.907zm-76.875-52.613c0 17.963-14.615 32.578-32.578 32.578-17.964 0-32.578-14.614-32.578-32.578s14.615-32.578 32.578-32.578 32.578 14.614 32.578 32.578z"/></g></g></svg>